<svg id="instagram-black" xmlns="http://www.w3.org/2000/svg" width="26.377" height="26.376" viewBox="0 0 26.377 26.376">
  <path id="Path_25" data-name="Path 25" d="M212.049,209.524A2.524,2.524,0,1,1,209.524,207,2.524,2.524,0,0,1,212.049,209.524Zm0,0" transform="translate(-196.336 -196.336)"/>
  <path id="Path_26" data-name="Path 26" d="M147.6,137.23a2.508,2.508,0,0,0-1.437-1.437,4.191,4.191,0,0,0-1.406-.261c-.8-.036-1.038-.044-3.06-.044s-2.262.008-3.06.044a4.2,4.2,0,0,0-1.406.261,2.509,2.509,0,0,0-1.437,1.437,4.192,4.192,0,0,0-.261,1.406c-.036.8-.044,1.038-.044,3.06s.008,2.262.044,3.06a4.191,4.191,0,0,0,.261,1.406,2.508,2.508,0,0,0,1.437,1.437,4.186,4.186,0,0,0,1.406.261c.8.036,1.038.044,3.06.044s2.262-.008,3.06-.044a4.185,4.185,0,0,0,1.406-.261,2.508,2.508,0,0,0,1.437-1.437,4.194,4.194,0,0,0,.261-1.406c.036-.8.044-1.038.044-3.06s-.008-2.262-.044-3.06A4.185,4.185,0,0,0,147.6,137.23Zm-5.9,8.355a3.889,3.889,0,1,1,3.889-3.889A3.889,3.889,0,0,1,141.693,145.585Zm4.042-7.022a.909.909,0,1,1,.909-.909A.909.909,0,0,1,145.735,138.563Zm0,0" transform="translate(-128.505 -128.508)"/>
  <path id="Path_27" data-name="Path 27" d="M13.188,0A13.188,13.188,0,1,0,26.377,13.188,13.19,13.19,0,0,0,13.188,0Zm7.527,16.311a5.556,5.556,0,0,1-.352,1.838,3.872,3.872,0,0,1-2.215,2.215,5.56,5.56,0,0,1-1.838.352c-.808.037-1.066.046-3.122.046s-2.315-.009-3.122-.046a5.56,5.56,0,0,1-1.838-.352,3.872,3.872,0,0,1-2.215-2.215,5.555,5.555,0,0,1-.352-1.838c-.037-.808-.046-1.066-.046-3.122s.009-2.315.046-3.122a5.557,5.557,0,0,1,.352-1.838A3.875,3.875,0,0,1,8.228,6.013a5.561,5.561,0,0,1,1.838-.352c.808-.037,1.066-.046,3.122-.046s2.315.009,3.122.046a5.562,5.562,0,0,1,1.838.352,3.873,3.873,0,0,1,2.215,2.215,5.556,5.556,0,0,1,.352,1.838c.037.808.045,1.066.045,3.122S20.753,15.5,20.716,16.311Zm0,0"/>
</svg>
