<svg xmlns="http://www.w3.org/2000/svg" width="26.863" height="26.863" viewBox="0 0 26.863 26.863">
  <path id="linkedin-black" d="M13.432,0A13.432,13.432,0,1,0,26.863,13.432,13.433,13.433,0,0,0,13.432,0Zm-3.9,20.3H6.257V10.463H9.529ZM7.893,9.12H7.872a1.7,1.7,0,1,1,.043-3.4,1.706,1.706,0,1,1-.022,3.4ZM21.324,20.3H18.053V15.04c0-1.323-.474-2.226-1.657-2.226a1.791,1.791,0,0,0-1.678,1.2,2.24,2.24,0,0,0-.108.8v5.5H11.339s.043-8.918,0-9.842H14.61v1.393a3.248,3.248,0,0,1,2.948-1.624c2.152,0,3.766,1.407,3.766,4.429Zm0,0"/>
</svg>
