<svg xmlns="http://www.w3.org/2000/svg" width="26.823" height="26.823" viewBox="0 0 26.823 26.823">
  <path id="tiktok-black" d="M13.411,0A13.411,13.411,0,1,0,26.823,13.411,13.413,13.413,0,0,0,13.411,0ZM20.14,10.261v1.816a6.337,6.337,0,0,1-3.878-1.318l.013,5.589a4.682,4.682,0,0,1-1.4,3.332,4.78,4.78,0,0,1-2.67,1.335,4.922,4.922,0,0,1-.721.053,4.8,4.8,0,0,1-2.939-.994,4.877,4.877,0,0,1-.452-.395,4.7,4.7,0,0,1-.212-6.48,4.8,4.8,0,0,1,3.6-1.612,4.922,4.922,0,0,1,.721.053v2.539a2.261,2.261,0,1,0,1.555,2.148l0-3.743V5.753h2.5a3.871,3.871,0,0,0,3.873,3.835h.007v.674Z"/>
</svg>
