<svg id="twitter-black" xmlns="http://www.w3.org/2000/svg" width="26.385" height="26.385" viewBox="0 0 26.385 26.385">
  <g id="Group_6" data-name="Group 6">
    <path id="Path_22" data-name="Path 22" d="M13.192,0A13.192,13.192,0,1,0,26.385,13.192,13.207,13.207,0,0,0,13.192,0Zm5.885,10.173c.006.131.009.263.009.394A8.637,8.637,0,0,1,5.792,17.842a6.131,6.131,0,0,0,4.5-1.257,3.039,3.039,0,0,1-2.837-2.109,3.048,3.048,0,0,0,1.371-.051,3.037,3.037,0,0,1-2.435-2.977c0-.013,0-.026,0-.038a3.024,3.024,0,0,0,1.375.379,3.041,3.041,0,0,1-.94-4.054,8.622,8.622,0,0,0,6.258,3.173,3.039,3.039,0,0,1,5.174-2.77A6.061,6.061,0,0,0,20.184,7.4a3.05,3.05,0,0,1-1.337,1.68A6.037,6.037,0,0,0,20.591,8.6a6.108,6.108,0,0,1-1.513,1.57Z"/>
  </g>
</svg>
